<svg width="261" height="240" viewBox="0 0 261 240" fill="none" xmlns="http://www.w3.org/2000/svg">
<rect width="261" height="240" rx="4" fill="#EBFFF4"/>
<g clip-path="url(#clip0)">
<path d="M87.1136 148.602C83.6064 148.602 80 151.411 80 156.328C80 160.824 83.1708 163.999 87.1136 163.999C90.3682 163.999 91.8188 161.816 91.8188 161.816V162.768C91.8188 163.217 92.2443 163.719 92.771 163.719H95.1235V148.938H91.8188V150.813C91.8188 150.813 90.3561 148.602 87.1136 148.602ZM87.7023 151.624C90.5896 151.624 92.1041 154.162 92.1041 156.327C92.1041 158.739 90.3059 161.029 87.7085 161.029C85.5372 161.029 83.3622 159.271 83.3622 156.296C83.3622 153.61 85.2339 151.624 87.7023 151.624Z" fill="black"/>
<path d="M99.7166 163.719C99.2088 163.719 98.7644 163.355 98.7644 162.768V148.937H102.069V150.767C102.818 149.642 104.281 148.597 106.527 148.597C110.197 148.597 112.152 151.522 112.152 154.257V163.719H109.855C109.253 163.719 108.847 163.216 108.847 162.712V154.985C108.847 153.469 107.918 151.628 105.769 151.628C103.45 151.628 102.069 153.818 102.069 155.881V163.719H99.7166Z" fill="black"/>
<path d="M121.786 148.602C118.279 148.602 114.672 151.411 114.672 156.328C114.672 160.824 117.843 163.999 121.786 163.999C125.04 163.999 126.491 161.816 126.491 161.816V162.768C126.491 163.217 126.916 163.719 127.443 163.719H129.796V141.547H126.491V150.813C126.491 150.813 125.028 148.602 121.786 148.602ZM122.374 151.624C125.262 151.624 126.776 154.162 126.776 156.327C126.776 158.739 124.978 161.029 122.381 161.029C120.209 161.029 118.034 159.271 118.034 156.296C118.034 153.61 119.906 151.624 122.374 151.624Z" fill="black"/>
<path d="M134.389 163.719C133.881 163.719 133.437 163.355 133.437 162.768V148.938H136.741V151.401C137.31 150.021 138.538 148.77 140.718 148.77C141.326 148.77 141.895 148.882 141.895 148.882V152.297C141.895 152.297 141.185 152.017 140.326 152.017C138.007 152.017 136.741 154.208 136.741 156.27V163.719H134.389Z" fill="black"/>
<path d="M161.947 163.719C161.44 163.719 160.995 163.355 160.995 162.768V148.938H164.3V163.719H161.947Z" fill="black"/>
<path d="M173.99 148.602C170.483 148.602 166.876 151.411 166.876 156.328C166.876 160.824 170.047 163.999 173.99 163.999C177.245 163.999 178.695 161.816 178.695 161.816V162.768C178.695 163.217 179.121 163.719 179.647 163.719H182V141.547H178.695V150.813C178.695 150.813 177.233 148.602 173.99 148.602ZM174.579 151.624C177.466 151.624 178.98 154.162 178.98 156.327C178.98 158.739 177.182 161.029 174.585 161.029C172.414 161.029 170.239 159.271 170.239 156.296C170.239 153.61 172.11 151.624 174.579 151.624Z" fill="black"/>
<path d="M162.621 145.749C163.829 145.749 164.807 144.771 164.807 143.564C164.807 142.358 163.829 141.379 162.621 141.379C161.414 141.379 160.436 142.358 160.436 143.564C160.436 144.771 161.414 145.749 162.621 145.749Z" fill="black"/>
<path d="M150.61 148.597C146.937 148.597 142.902 151.337 142.902 156.302C142.902 160.827 146.339 164 150.602 164C155.856 164 158.422 159.778 158.422 156.331C158.422 152.101 155.118 148.597 150.61 148.597ZM150.622 151.682C153.162 151.682 155.057 153.728 155.057 156.312C155.057 158.94 153.046 160.968 150.63 160.968C148.387 160.968 146.207 159.143 146.207 156.356C146.207 153.521 148.28 151.682 150.622 151.682Z" fill="black"/>
<path d="M155.894 92.2156L164.35 77.5738C164.827 76.753 164.538 75.7103 163.728 75.2334C162.918 74.7564 161.864 75.0337 161.398 75.8545L152.832 90.6849C146.296 87.7011 138.939 86.0372 131.027 86.0372C123.115 86.0372 115.758 87.7011 109.223 90.6849L100.656 75.8545C100.179 75.0337 99.136 74.7564 98.3148 75.2334C97.4937 75.7103 97.2163 76.753 97.6934 77.5738L106.149 92.2156C91.5682 100.113 81.6924 114.866 80.0612 132.137H181.993C180.362 114.866 170.486 100.113 155.894 92.2156ZM107.625 117.828C105.261 117.828 103.353 115.909 103.353 113.557C103.353 111.195 105.272 109.287 107.625 109.287C109.988 109.287 111.897 111.206 111.897 113.557C111.908 115.909 109.988 117.828 107.625 117.828ZM154.418 117.828C152.055 117.828 150.146 115.909 150.146 113.557C150.146 111.195 152.066 109.287 154.418 109.287C156.782 109.287 158.691 111.206 158.691 113.557C158.702 115.909 156.782 117.828 154.418 117.828Z" fill="#32DE84"/>
</g>
<defs>
<clipPath id="clip0">
<rect width="102" height="89" fill="white" transform="translate(80 75)"/>
</clipPath>
</defs>
</svg>
