<svg width="130" height="158" viewBox="0 0 130 158" fill="none" xmlns="http://www.w3.org/2000/svg">
<path d="M11.7736 151.585C11.7736 148.334 9.13797 145.698 5.88678 145.698C2.63559 145.698 0 148.334 0 151.585C0 154.836 2.63559 157.472 5.88678 157.472C9.13797 157.472 11.7736 154.836 11.7736 151.585Z" fill="#3AE4DF"/>
<path d="M11.7736 122.396C11.7736 119.145 9.13797 116.51 5.88678 116.51C2.63559 116.51 0 119.145 0 122.396C0 125.647 2.63559 128.283 5.88678 128.283C9.13797 128.283 11.7736 125.647 11.7736 122.396Z" fill="#3AE4DF"/>
<path d="M11.7736 93.2076C11.7736 89.9564 9.13797 87.3208 5.88678 87.3208C2.63559 87.3208 0 89.9564 0 93.2076C0 96.4588 2.63559 99.0944 5.88678 99.0944C9.13797 99.0944 11.7736 96.4588 11.7736 93.2076Z" fill="#3AE4DF"/>
<path d="M11.7736 64.2642C11.7736 61.013 9.13797 58.3774 5.88678 58.3774C2.63559 58.3774 0 61.013 0 64.2642C0 67.5154 2.63559 70.151 5.88678 70.151C9.13797 70.151 11.7736 67.5154 11.7736 64.2642Z" fill="#3AE4DF"/>
<path d="M11.7736 35.0754C11.7736 31.8242 9.13797 29.1886 5.88678 29.1886C2.63559 29.1886 0 31.8242 0 35.0754C0 38.3266 2.63559 40.9623 5.88678 40.9623C9.13797 40.9623 11.7736 38.3266 11.7736 35.0754Z" fill="#3AE4DF"/>
<path d="M11.7736 5.88678C11.7736 2.63559 9.13797 -9.53674e-07 5.88678 -9.53674e-07C2.63559 -9.53674e-07 0 2.63559 0 5.88678C0 9.13797 2.63559 11.7736 5.88678 11.7736C9.13797 11.7736 11.7736 9.13797 11.7736 5.88678Z" fill="#3AE4DF"/>
<path d="M41.2076 151.585C41.2076 148.334 38.572 145.698 35.3209 145.698C32.0697 145.698 29.4341 148.334 29.4341 151.585C29.4341 154.836 32.0697 157.472 35.3209 157.472C38.572 157.472 41.2076 154.836 41.2076 151.585Z" fill="#3AE4DF"/>
<path d="M41.2076 122.396C41.2076 119.145 38.572 116.51 35.3209 116.51C32.0697 116.51 29.4341 119.145 29.4341 122.396C29.4341 125.647 32.0697 128.283 35.3209 128.283C38.572 128.283 41.2076 125.647 41.2076 122.396Z" fill="#3AE4DF"/>
<path d="M41.2076 93.2076C41.2076 89.9564 38.572 87.3208 35.3209 87.3208C32.0697 87.3208 29.4341 89.9564 29.4341 93.2076C29.4341 96.4588 32.0697 99.0944 35.3209 99.0944C38.572 99.0944 41.2076 96.4588 41.2076 93.2076Z" fill="#3AE4DF"/>
<path d="M41.2076 64.2642C41.2076 61.013 38.572 58.3774 35.3209 58.3774C32.0697 58.3774 29.4341 61.013 29.4341 64.2642C29.4341 67.5154 32.0697 70.151 35.3209 70.151C38.572 70.151 41.2076 67.5154 41.2076 64.2642Z" fill="#3AE4DF"/>
<path d="M41.2076 35.0754C41.2076 31.8242 38.572 29.1886 35.3209 29.1886C32.0697 29.1886 29.4341 31.8242 29.4341 35.0754C29.4341 38.3266 32.0697 40.9623 35.3209 40.9623C38.572 40.9623 41.2076 38.3266 41.2076 35.0754Z" fill="#3AE4DF"/>
<path d="M41.2076 5.88678C41.2076 2.63559 38.572 -9.53674e-07 35.3209 -9.53674e-07C32.0697 -9.53674e-07 29.4341 2.63559 29.4341 5.88678C29.4341 9.13797 32.0697 11.7736 35.3209 11.7736C38.572 11.7736 41.2076 9.13797 41.2076 5.88678Z" fill="#3AE4DF"/>
<path d="M70.8873 151.585C70.8873 148.334 68.2517 145.698 65.0005 145.698C61.7493 145.698 59.1137 148.334 59.1137 151.585C59.1137 154.836 61.7493 157.472 65.0005 157.472C68.2517 157.472 70.8873 154.836 70.8873 151.585Z" fill="#3AE4DF"/>
<path d="M70.8869 122.396C70.8869 119.145 68.2513 116.51 65.0001 116.51C61.7489 116.51 59.1133 119.145 59.1133 122.396C59.1133 125.647 61.7489 128.283 65.0001 128.283C68.2513 128.283 70.8869 125.647 70.8869 122.396Z" fill="#3AE4DF"/>
<path d="M70.8869 93.2076C70.8869 89.9564 68.2513 87.3208 65.0001 87.3208C61.7489 87.3208 59.1133 89.9564 59.1133 93.2076C59.1133 96.4588 61.7489 99.0944 65.0001 99.0944C68.2513 99.0944 70.8869 96.4588 70.8869 93.2076Z" fill="#3AE4DF"/>
<path d="M70.8869 64.2642C70.8869 61.013 68.2513 58.3774 65.0001 58.3774C61.7489 58.3774 59.1133 61.013 59.1133 64.2642C59.1133 67.5154 61.7489 70.151 65.0001 70.151C68.2513 70.151 70.8869 67.5154 70.8869 64.2642Z" fill="#3AE4DF"/>
<path d="M70.8869 35.0754C70.8869 31.8242 68.2513 29.1886 65.0001 29.1886C61.7489 29.1886 59.1133 31.8242 59.1133 35.0754C59.1133 38.3266 61.7489 40.9623 65.0001 40.9623C68.2513 40.9623 70.8869 38.3266 70.8869 35.0754Z" fill="#3AE4DF"/>
<path d="M70.8869 5.88678C70.8869 2.63559 68.2513 -9.53674e-07 65.0001 -9.53674e-07C61.7489 -9.53674e-07 59.1133 2.63559 59.1133 5.88678C59.1133 9.13797 61.7489 11.7736 65.0001 11.7736C68.2513 11.7736 70.8869 9.13797 70.8869 5.88678Z" fill="#3AE4DF"/>
<path d="M100.321 151.585C100.321 148.334 97.6853 145.698 94.4341 145.698C91.183 145.698 88.5474 148.334 88.5474 151.585C88.5474 154.836 91.183 157.472 94.4341 157.472C97.6853 157.472 100.321 154.836 100.321 151.585Z" fill="#3AE4DF"/>
<path d="M100.321 122.396C100.321 119.145 97.6853 116.51 94.4341 116.51C91.183 116.51 88.5474 119.145 88.5474 122.396C88.5474 125.647 91.183 128.283 94.4341 128.283C97.6853 128.283 100.321 125.647 100.321 122.396Z" fill="#3AE4DF"/>
<path d="M100.321 93.2076C100.321 89.9564 97.6853 87.3208 94.4341 87.3208C91.183 87.3208 88.5474 89.9564 88.5474 93.2076C88.5474 96.4588 91.183 99.0944 94.4341 99.0944C97.6853 99.0944 100.321 96.4588 100.321 93.2076Z" fill="#3AE4DF"/>
<path d="M100.321 64.2642C100.321 61.013 97.6853 58.3774 94.4341 58.3774C91.183 58.3774 88.5474 61.013 88.5474 64.2642C88.5474 67.5154 91.183 70.151 94.4341 70.151C97.6853 70.151 100.321 67.5154 100.321 64.2642Z" fill="#3AE4DF"/>
<path d="M100.321 35.0754C100.321 31.8242 97.6853 29.1886 94.4341 29.1886C91.183 29.1886 88.5474 31.8242 88.5474 35.0754C88.5474 38.3266 91.183 40.9623 94.4341 40.9623C97.6853 40.9623 100.321 38.3266 100.321 35.0754Z" fill="#3AE4DF"/>
<path d="M100.321 5.88678C100.321 2.63559 97.6853 -9.53674e-07 94.4341 -9.53674e-07C91.183 -9.53674e-07 88.5474 2.63559 88.5474 5.88678C88.5474 9.13797 91.183 11.7736 94.4341 11.7736C97.6853 11.7736 100.321 9.13797 100.321 5.88678Z" fill="#3AE4DF"/>
<path d="M130 151.585C130 148.334 127.365 145.698 124.113 145.698C120.862 145.698 118.227 148.334 118.227 151.585C118.227 154.836 120.862 157.472 124.113 157.472C127.365 157.472 130 154.836 130 151.585Z" fill="#3AE4DF"/>
<path d="M130 122.396C130 119.145 127.364 116.51 124.113 116.51C120.862 116.51 118.226 119.145 118.226 122.396C118.226 125.647 120.862 128.283 124.113 128.283C127.364 128.283 130 125.647 130 122.396Z" fill="#3AE4DF"/>
<path d="M130 93.2076C130 89.9564 127.364 87.3208 124.113 87.3208C120.862 87.3208 118.226 89.9564 118.226 93.2076C118.226 96.4588 120.862 99.0944 124.113 99.0944C127.364 99.0944 130 96.4588 130 93.2076Z" fill="#3AE4DF"/>
<path d="M130 64.2642C130 61.013 127.364 58.3774 124.113 58.3774C120.862 58.3774 118.226 61.013 118.226 64.2642C118.226 67.5154 120.862 70.151 124.113 70.151C127.364 70.151 130 67.5154 130 64.2642Z" fill="#3AE4DF"/>
<path d="M130 35.0754C130 31.8242 127.364 29.1886 124.113 29.1886C120.862 29.1886 118.226 31.8242 118.226 35.0754C118.226 38.3266 120.862 40.9623 124.113 40.9623C127.364 40.9623 130 38.3266 130 35.0754Z" fill="#3AE4DF"/>
<path d="M130 5.88678C130 2.63559 127.364 -9.53674e-07 124.113 -9.53674e-07C120.862 -9.53674e-07 118.226 2.63559 118.226 5.88678C118.226 9.13797 120.862 11.7736 124.113 11.7736C127.364 11.7736 130 9.13797 130 5.88678Z" fill="#3AE4DF"/>
</svg>
