<svg width="261" height="240" viewBox="0 0 261 240" fill="none" xmlns="http://www.w3.org/2000/svg">
<rect width="261" height="240" rx="4" fill="#FFF5F6"/>
<path d="M214.655 112.242C214.824 112.242 214.993 112.242 215.09 112.073C215.114 112.001 215.138 111.929 215.138 111.856C215.138 111.712 215.066 111.591 214.945 111.519C214.824 111.471 214.703 111.471 214.437 111.471H214.316V112.218H214.655V112.242ZM214.437 111.061C214.8 111.061 214.969 111.061 215.114 111.133C215.598 111.278 215.646 111.712 215.646 111.856C215.646 111.881 215.646 111.977 215.622 112.073C215.598 112.17 215.549 112.363 215.283 112.532C215.235 112.556 215.235 112.556 215.162 112.58L215.767 113.689H215.187L214.655 112.676H214.316V113.689H213.784V111.061H214.437ZM214.655 114.774C215.96 114.774 217 113.713 217 112.435C217 111.133 215.96 110.096 214.655 110.096C213.373 110.096 212.333 111.133 212.333 112.435C212.333 113.713 213.373 114.774 214.655 114.774ZM212.817 112.435C212.817 111.423 213.639 110.579 214.655 110.579C215.694 110.579 216.516 111.423 216.516 112.435C216.516 113.424 215.67 114.268 214.655 114.268C213.663 114.268 212.817 113.424 212.817 112.435ZM196.52 127.311C193.425 127.311 190.838 125.238 190.04 122.417H207.159L209.529 118.752H190.016C190.789 115.931 193.425 113.834 196.496 113.834H208.295L210.641 110.169H196.23C190.451 110.169 185.784 114.822 185.784 120.56C185.784 126.299 190.451 130.952 196.23 130.952H208.61L210.955 127.287H196.496L196.52 127.311ZM147.459 130.976C141.705 130.976 137.038 126.323 137.038 120.584C137.038 114.846 141.705 110.193 147.459 110.193H161.87L159.501 113.858H147.701C143.978 113.858 140.955 116.871 140.955 120.584C140.955 124.297 143.978 127.311 147.701 127.311H162.161L159.791 130.976H147.411H147.459ZM71.2936 127.311C75.0173 127.311 78.0639 124.297 78.0639 120.584C78.0639 116.871 75.0415 113.858 71.2936 113.858H59.7116C55.9879 113.858 52.9655 116.871 52.9655 120.584C52.9655 124.297 55.9879 127.311 59.7116 127.311H71.2936ZM59.4456 130.976C53.6667 130.976 49 126.323 49 120.584C49 114.846 53.6667 110.193 59.4456 110.193H71.5596C77.3143 110.193 81.981 114.846 81.981 120.584C81.981 126.323 77.3143 130.976 71.5596 130.976H59.4456ZM101.663 124.249C105.58 124.249 108.724 121.091 108.724 117.209C108.724 113.327 105.58 110.169 101.663 110.169H84.1088V130.976H88.1226V113.834H101.397C103.235 113.834 104.758 115.352 104.758 117.209C104.758 119.065 103.235 120.56 101.397 120.56H90.0812L102.026 130.976H107.853L99.8014 124.249H101.615H101.663ZM168.012 127.311V110.193H164.022V128.999C164.022 129.529 164.216 130.011 164.603 130.397C164.99 130.759 165.522 131 166.078 131H184.382L186.751 127.335H168.036L168.012 127.311ZM118.927 123.646H129.639L123.981 114.557L113.584 131H108.869L121.491 111.278C122.047 110.482 122.965 110 123.981 110C124.948 110 125.867 110.458 126.423 111.23L139.093 131H134.354L132.13 127.335H121.297L118.927 123.67V123.646Z" fill="#E32124"/>
</svg>
