<svg width="130" height="158" viewBox="0 0 130 158" fill="none" xmlns="http://www.w3.org/2000/svg">
<path d="M11.7736 151.585C11.7736 148.334 9.13797 145.698 5.88678 145.698C2.63559 145.698 0 148.334 0 151.585C0 154.836 2.63559 157.472 5.88678 157.472C9.13797 157.472 11.7736 154.836 11.7736 151.585Z" fill="#FCDDA8"/>
<path d="M11.7736 122.396C11.7736 119.145 9.13797 116.509 5.88678 116.509C2.63559 116.509 0 119.145 0 122.396C0 125.647 2.63559 128.283 5.88678 128.283C9.13797 128.283 11.7736 125.647 11.7736 122.396Z" fill="#FCDDA8"/>
<path d="M11.7736 93.2075C11.7736 89.9563 9.13797 87.3207 5.88678 87.3207C2.63559 87.3207 0 89.9563 0 93.2075C0 96.4586 2.63559 99.0942 5.88678 99.0942C9.13797 99.0942 11.7736 96.4586 11.7736 93.2075Z" fill="#FCDDA8"/>
<path d="M11.7736 64.2641C11.7736 61.0129 9.13797 58.3772 5.88678 58.3772C2.63559 58.3772 0 61.0129 0 64.2641C0 67.5153 2.63559 70.1509 5.88678 70.1509C9.13797 70.1509 11.7736 67.5153 11.7736 64.2641Z" fill="#FCDDA8"/>
<path d="M11.7736 35.0753C11.7736 31.8241 9.13797 29.1885 5.88678 29.1885C2.63559 29.1885 0 31.8241 0 35.0753C0 38.3265 2.63559 40.9622 5.88678 40.9622C9.13797 40.9622 11.7736 38.3265 11.7736 35.0753Z" fill="#FCDDA8"/>
<path d="M11.7736 5.88666C11.7736 2.63547 9.13797 -0.000123024 5.88678 -0.000123024C2.63559 -0.000123024 0 2.63547 0 5.88666C0 9.13784 2.63559 11.7734 5.88678 11.7734C9.13797 11.7734 11.7736 9.13784 11.7736 5.88666Z" fill="#FCDDA8"/>
<path d="M41.2076 151.585C41.2076 148.334 38.572 145.698 35.3209 145.698C32.0697 145.698 29.4341 148.334 29.4341 151.585C29.4341 154.836 32.0697 157.472 35.3209 157.472C38.572 157.472 41.2076 154.836 41.2076 151.585Z" fill="#FCDDA8"/>
<path d="M41.2076 122.396C41.2076 119.145 38.572 116.509 35.3208 116.509C32.0696 116.509 29.434 119.145 29.434 122.396C29.434 125.647 32.0696 128.283 35.3208 128.283C38.572 128.283 41.2076 125.647 41.2076 122.396Z" fill="#FCDDA8"/>
<path d="M41.2076 93.2075C41.2076 89.9563 38.572 87.3207 35.3208 87.3207C32.0696 87.3207 29.434 89.9563 29.434 93.2075C29.434 96.4586 32.0696 99.0942 35.3208 99.0942C38.572 99.0942 41.2076 96.4586 41.2076 93.2075Z" fill="#FCDDA8"/>
<path d="M41.2076 64.2641C41.2076 61.0129 38.572 58.3772 35.3208 58.3772C32.0696 58.3772 29.434 61.0129 29.434 64.2641C29.434 67.5153 32.0696 70.1509 35.3208 70.1509C38.572 70.1509 41.2076 67.5153 41.2076 64.2641Z" fill="#FCDDA8"/>
<path d="M41.2076 35.0753C41.2076 31.8241 38.572 29.1885 35.3208 29.1885C32.0696 29.1885 29.434 31.8241 29.434 35.0753C29.434 38.3265 32.0696 40.9622 35.3208 40.9622C38.572 40.9622 41.2076 38.3265 41.2076 35.0753Z" fill="#FCDDA8"/>
<path d="M41.2076 5.88666C41.2076 2.63547 38.572 -0.000123024 35.3208 -0.000123024C32.0696 -0.000123024 29.434 2.63547 29.434 5.88666C29.434 9.13784 32.0696 11.7734 35.3208 11.7734C38.572 11.7734 41.2076 9.13784 41.2076 5.88666Z" fill="#FCDDA8"/>
<path d="M70.8873 151.585C70.8873 148.334 68.2517 145.698 65.0005 145.698C61.7494 145.698 59.1138 148.334 59.1138 151.585C59.1138 154.836 61.7494 157.472 65.0005 157.472C68.2517 157.472 70.8873 154.836 70.8873 151.585Z" fill="#FCDDA8"/>
<path d="M70.8869 122.396C70.8869 119.145 68.2513 116.509 65.0001 116.509C61.7489 116.509 59.1133 119.145 59.1133 122.396C59.1133 125.647 61.7489 128.283 65.0001 128.283C68.2513 128.283 70.8869 125.647 70.8869 122.396Z" fill="#FCDDA8"/>
<path d="M70.8869 93.2075C70.8869 89.9563 68.2513 87.3207 65.0001 87.3207C61.7489 87.3207 59.1133 89.9563 59.1133 93.2075C59.1133 96.4586 61.7489 99.0942 65.0001 99.0942C68.2513 99.0942 70.8869 96.4586 70.8869 93.2075Z" fill="#FCDDA8"/>
<path d="M70.8869 64.2641C70.8869 61.0129 68.2513 58.3772 65.0001 58.3772C61.7489 58.3772 59.1133 61.0129 59.1133 64.2641C59.1133 67.5153 61.7489 70.1509 65.0001 70.1509C68.2513 70.1509 70.8869 67.5153 70.8869 64.2641Z" fill="#FCDDA8"/>
<path d="M70.8869 35.0753C70.8869 31.8241 68.2513 29.1885 65.0001 29.1885C61.7489 29.1885 59.1133 31.8241 59.1133 35.0753C59.1133 38.3265 61.7489 40.9622 65.0001 40.9622C68.2513 40.9622 70.8869 38.3265 70.8869 35.0753Z" fill="#FCDDA8"/>
<path d="M70.8869 5.88666C70.8869 2.63547 68.2513 -0.000123024 65.0001 -0.000123024C61.7489 -0.000123024 59.1133 2.63547 59.1133 5.88666C59.1133 9.13784 61.7489 11.7734 65.0001 11.7734C68.2513 11.7734 70.8869 9.13784 70.8869 5.88666Z" fill="#FCDDA8"/>
<path d="M100.321 151.585C100.321 148.334 97.6853 145.698 94.4342 145.698C91.183 145.698 88.5474 148.334 88.5474 151.585C88.5474 154.836 91.183 157.472 94.4342 157.472C97.6853 157.472 100.321 154.836 100.321 151.585Z" fill="#FCDDA8"/>
<path d="M100.321 122.396C100.321 119.145 97.6854 116.509 94.4342 116.509C91.183 116.509 88.5474 119.145 88.5474 122.396C88.5474 125.647 91.183 128.283 94.4342 128.283C97.6854 128.283 100.321 125.647 100.321 122.396Z" fill="#FCDDA8"/>
<path d="M100.321 93.2075C100.321 89.9563 97.6854 87.3207 94.4342 87.3207C91.183 87.3207 88.5474 89.9563 88.5474 93.2075C88.5474 96.4586 91.183 99.0942 94.4342 99.0942C97.6854 99.0942 100.321 96.4586 100.321 93.2075Z" fill="#FCDDA8"/>
<path d="M100.321 64.2641C100.321 61.0129 97.6854 58.3772 94.4342 58.3772C91.183 58.3772 88.5474 61.0129 88.5474 64.2641C88.5474 67.5153 91.183 70.1509 94.4342 70.1509C97.6854 70.1509 100.321 67.5153 100.321 64.2641Z" fill="#FCDDA8"/>
<path d="M100.321 35.0753C100.321 31.8241 97.6854 29.1885 94.4342 29.1885C91.183 29.1885 88.5474 31.8241 88.5474 35.0753C88.5474 38.3265 91.183 40.9622 94.4342 40.9622C97.6854 40.9622 100.321 38.3265 100.321 35.0753Z" fill="#FCDDA8"/>
<path d="M100.321 5.88666C100.321 2.63547 97.6854 -0.000123024 94.4342 -0.000123024C91.183 -0.000123024 88.5474 2.63547 88.5474 5.88666C88.5474 9.13784 91.183 11.7734 94.4342 11.7734C97.6854 11.7734 100.321 9.13784 100.321 5.88666Z" fill="#FCDDA8"/>
<path d="M130 151.585C130 148.334 127.365 145.698 124.113 145.698C120.862 145.698 118.227 148.334 118.227 151.585C118.227 154.836 120.862 157.472 124.113 157.472C127.365 157.472 130 154.836 130 151.585Z" fill="#FCDDA8"/>
<path d="M130 122.396C130 119.145 127.364 116.509 124.113 116.509C120.862 116.509 118.226 119.145 118.226 122.396C118.226 125.647 120.862 128.283 124.113 128.283C127.364 128.283 130 125.647 130 122.396Z" fill="#FCDDA8"/>
<path d="M130 93.2075C130 89.9563 127.364 87.3207 124.113 87.3207C120.862 87.3207 118.226 89.9563 118.226 93.2075C118.226 96.4586 120.862 99.0942 124.113 99.0942C127.364 99.0942 130 96.4586 130 93.2075Z" fill="#FCDDA8"/>
<path d="M130 64.2641C130 61.0129 127.364 58.3772 124.113 58.3772C120.862 58.3772 118.226 61.0129 118.226 64.2641C118.226 67.5153 120.862 70.1509 124.113 70.1509C127.364 70.1509 130 67.5153 130 64.2641Z" fill="#FCDDA8"/>
<path d="M130 35.0753C130 31.8241 127.364 29.1885 124.113 29.1885C120.862 29.1885 118.226 31.8241 118.226 35.0753C118.226 38.3265 120.862 40.9622 124.113 40.9622C127.364 40.9622 130 38.3265 130 35.0753Z" fill="#FCDDA8"/>
<path d="M130 5.88666C130 2.63547 127.364 -0.000123024 124.113 -0.000123024C120.862 -0.000123024 118.226 2.63547 118.226 5.88666C118.226 9.13784 120.862 11.7734 124.113 11.7734C127.364 11.7734 130 9.13784 130 5.88666Z" fill="#FCDDA8"/>
</svg>
