<svg width="261" height="240" viewBox="0 0 261 240" fill="none" xmlns="http://www.w3.org/2000/svg">
<rect width="261" height="240" rx="4" fill="#FFFCEB"/>
<path d="M110.352 116.771C110.352 111.864 108.953 109.344 106.153 109.206C105.039 109.154 103.951 109.331 102.893 109.742C102.049 110.044 101.48 110.343 101.181 110.645V122.359C102.972 123.482 104.563 124.004 105.949 123.922C108.884 123.728 110.352 121.347 110.352 116.771ZM113.806 116.975C113.806 119.468 113.221 121.537 112.045 123.183C110.734 125.046 108.916 126.005 106.593 126.057C104.842 126.113 103.038 125.565 101.181 124.415V135.061L98.1779 133.99V110.359C98.6708 109.755 99.305 109.236 100.074 108.796C101.862 107.754 104.034 107.219 106.59 107.193L106.633 107.235C108.969 107.206 110.77 108.165 112.035 110.11C113.215 111.893 113.806 114.179 113.806 116.975Z" fill="#646464"/>
<path d="M132.161 123.962C132.161 127.306 131.826 129.621 131.156 130.909C130.482 132.197 129.201 133.225 127.308 133.99C125.773 134.595 124.114 134.923 122.333 134.979L121.837 133.087C123.647 132.84 124.922 132.594 125.662 132.348C127.117 131.855 128.116 131.1 128.665 130.088C129.105 129.263 129.322 127.69 129.322 125.361V124.579C127.269 125.512 125.116 125.975 122.865 125.975C121.387 125.975 120.082 125.512 118.958 124.579C117.696 123.564 117.066 122.277 117.066 120.716V108.221L120.069 107.193V119.77C120.069 121.114 120.503 122.148 121.37 122.874C122.238 123.6 123.361 123.948 124.738 123.922C126.115 123.893 127.591 123.361 129.158 122.319V107.646H132.161V123.962Z" fill="#646464"/>
<path d="M143.886 125.893C143.527 125.923 143.199 125.936 142.897 125.936C141.198 125.936 139.873 125.532 138.927 124.72C137.984 123.909 137.511 122.789 137.511 121.36V109.535H135.454V107.646H137.511V102.63L140.511 101.563V107.646H143.886V109.535H140.511V121.278C140.511 122.405 140.813 123.203 141.418 123.669C141.937 124.054 142.762 124.274 143.886 124.33V125.893Z" fill="#646464"/>
<path d="M162.07 125.647H159.067V114.058C159.067 112.879 158.791 111.864 158.242 111.016C157.608 110.057 156.727 109.578 155.597 109.578C154.22 109.578 152.498 110.303 150.431 111.755V125.647H147.428V97.946L150.431 97V109.617C152.35 108.221 154.447 107.521 156.724 107.521C158.314 107.521 159.602 108.057 160.588 109.124C161.577 110.192 162.07 111.522 162.07 113.112V125.647Z" fill="#646464"/>
<path d="M178.033 116.298C178.033 114.413 177.675 112.856 176.962 111.624C176.114 110.123 174.797 109.331 173.016 109.249C169.723 109.439 168.08 111.798 168.08 116.318C168.08 118.391 168.422 120.122 169.112 121.511C169.993 123.282 171.314 124.155 173.075 124.126C176.381 124.1 178.033 121.491 178.033 116.298ZM181.323 116.318C181.323 119.002 180.636 121.235 179.266 123.019C177.757 125.016 175.674 126.018 173.016 126.018C170.38 126.018 168.327 125.016 166.845 123.019C165.501 121.235 164.83 119.002 164.83 116.318C164.83 113.795 165.557 111.673 167.009 109.945C168.544 108.112 170.561 107.193 173.055 107.193C175.549 107.193 177.58 108.112 179.144 109.945C180.596 111.673 181.323 113.795 181.323 116.318Z" fill="#646464"/>
<path d="M198.541 125.647H195.538V113.401C195.538 112.057 195.133 111.01 194.325 110.254C193.517 109.502 192.439 109.137 191.095 109.167C189.669 109.193 188.312 109.66 187.024 110.563V125.647H184.02V110.192C185.749 108.934 187.339 108.112 188.792 107.728C190.162 107.37 191.371 107.193 192.413 107.193C193.126 107.193 193.796 107.262 194.427 107.4C195.607 107.672 196.566 108.178 197.305 108.92C198.13 109.742 198.541 110.727 198.541 111.88V125.647Z" fill="#646464"/>
<path d="M68.5144 98.057C66.9691 98.0641 65.4934 98.1959 64.195 98.4255C60.3699 99.1011 59.6754 100.515 59.6754 103.123V106.566H68.7145V107.714H59.6754H56.2831C53.6561 107.714 51.3558 109.293 50.6363 112.295C49.8064 115.737 49.7696 117.885 50.6363 121.479C51.2789 124.154 52.8133 126.06 55.4403 126.06H58.5482V121.932C58.5482 118.949 61.1296 116.318 64.195 116.318H73.2235C75.7368 116.318 77.7431 114.25 77.7431 111.727V103.123C77.7431 100.674 75.6765 98.8342 73.2235 98.4255C71.6707 98.1672 70.0596 98.0498 68.5144 98.057ZM63.6261 100.827C64.5598 100.827 65.3222 101.601 65.3222 102.554C65.3222 103.503 64.5598 104.27 63.6261 104.27C62.6891 104.27 61.9299 103.503 61.9299 102.554C61.9299 101.601 62.6891 100.827 63.6261 100.827Z" fill="url(#paint0_linear)"/>
<path d="M78.8703 107.714V111.727C78.8703 114.837 76.232 117.456 73.2235 117.456H64.1949C61.7219 117.456 59.6754 119.572 59.6754 122.047V130.652C59.6754 133.1 61.8055 134.541 64.1949 135.243C67.0562 136.084 69.8 136.236 73.2235 135.243C75.4991 134.585 77.7431 133.259 77.7431 130.652V127.208H68.7145V126.06H77.7431H82.2626C84.8896 126.06 85.8685 124.228 86.7821 121.479C87.7259 118.648 87.6857 115.926 86.7821 112.295C86.1329 109.681 84.893 107.714 82.2626 107.714H78.8703ZM73.7924 129.504C74.7294 129.504 75.4885 130.271 75.4885 131.22C75.4885 132.173 74.7294 132.947 73.7924 132.947C72.8587 132.947 72.0963 132.173 72.0963 131.22C72.0963 130.271 72.8587 129.504 73.7924 129.504Z" fill="url(#paint1_linear)"/>
<path d="M204.39 104.969H204.916V101.668H206.164V101.274H203.142V101.668H204.39V104.969ZM206.631 104.969H207.08V101.954L208.057 104.969H208.558L209.575 101.964V104.969H210.066V101.274H209.417L208.305 104.44L207.357 101.274H206.631V104.969Z" fill="#646464"/>
<path opacity="0.44382" d="M80.9303 141.092C80.9303 141.401 80.617 141.706 80.0083 141.991C79.3995 142.276 78.5073 142.535 77.3825 142.753C76.2577 142.971 74.9223 143.144 73.4527 143.262C71.9831 143.38 70.4079 143.44 68.8172 143.44C67.2265 143.44 65.6513 143.38 64.1817 143.262C62.7121 143.144 61.3767 142.971 60.2519 142.753C59.1271 142.535 58.2349 142.276 57.6261 141.991C57.0174 141.706 56.7041 141.401 56.7041 141.092C56.7041 140.784 57.0174 140.479 57.6261 140.194C58.2349 139.909 59.1271 139.65 60.2519 139.432C61.3767 139.214 62.7121 139.041 64.1817 138.923C65.6513 138.805 67.2265 138.744 68.8172 138.744C70.4079 138.744 71.9831 138.805 73.4527 138.923C74.9223 139.041 76.2577 139.214 77.3825 139.432C78.5073 139.65 79.3995 139.909 80.0083 140.194C80.617 140.479 80.9303 140.784 80.9303 141.092Z" fill="url(#paint2_radial)"/>
<defs>
<linearGradient id="paint0_linear" x1="50" y1="98.0566" x2="70.837" y2="115.819" gradientUnits="userSpaceOnUse">
<stop stop-color="#5A9FD4"/>
<stop offset="1" stop-color="#306998"/>
</linearGradient>
<linearGradient id="paint1_linear" x1="73.5752" y1="130.931" x2="66.1009" y2="120.453" gradientUnits="userSpaceOnUse">
<stop stop-color="#FFD43B"/>
<stop offset="1" stop-color="#FFE873"/>
</linearGradient>
<radialGradient id="paint2_radial" cx="0" cy="0" r="1" gradientUnits="userSpaceOnUse" gradientTransform="translate(68.8172 141.092) rotate(-90) scale(2.34801 10.3241)">
<stop stop-color="#B8B8B8" stop-opacity="0.498039"/>
<stop offset="1" stop-color="#7F7F7F" stop-opacity="0"/>
</radialGradient>
</defs>
</svg>
