<svg width="16" height="20" viewBox="0 0 16 20" fill="none" xmlns="http://www.w3.org/2000/svg">
<path d="M15.3801 10.1597L14.3054 7.76137L15.3801 5.363L13.1011 4.05425L12.5607 1.48224L9.94752 1.76315L7.99867 0L6.04967 1.76315L3.43661 1.48239L2.8963 4.0544L0.617096 5.363L1.69177 7.76137L0.617096 10.1597L2.8963 11.4685L3.18896 12.8619L0.756103 18.0314L3.29516 18.0647L4.93914 20L7.33049 14.9183L7.99867 15.5227L8.6667 14.9183L11.0582 20L12.702 18.0647L15.2411 18.0314L12.8082 12.8619L13.1011 11.4685L15.3801 10.1597ZM7.99867 12.4769C5.39843 12.4769 3.28311 10.3616 3.28311 7.76137C3.28311 5.16112 5.39843 3.0458 7.99867 3.0458C10.5988 3.0458 12.7142 5.16127 12.7142 7.76137C12.7142 10.3616 10.5988 12.4769 7.99867 12.4769Z" fill="#00CEC8"/>
</svg>
